<?xml version="1.0" encoding="iso-8859-1"?>
<!DOCTYPE svg PUBLIC "-//W3C//DTD SVG 1.1//EN" "http://www.w3.org/Graphics/SVG/1.1/DTD/svg11.dtd">
<svg 
 version="1.1" xmlns="http://www.w3.org/2000/svg" xmlns:xlink="http://www.w3.org/1999/xlink" x="0px" y="0px" width="512px"
	 height="512px" viewBox="0 0 512 512" enable-background="new 0 0 512 512" xml:space="preserve"
><g id="e6c6b53d3c8160b22dad35a0f7094650"><g></g><g fill="#ffffff"><path display="inline" d="M464.186,213.729l-75.704,47.315V0.5h75.704V213.729z M388.481,511.5h75.704V359.782l-75.704,47.314
		V511.5z M47.815,511.5h75.704V336.173l-75.704,37.848V511.5z M237.074,208.07v-94.014h-75.704v61.771l24.726-12.363L237.074,208.07
		z M161.371,317.247V511.5h75.704V365.438l-62.578-54.752L161.371,317.247z M350.63,284.699v-94.94h-75.704v51.429l60.552,52.981
		L350.63,284.699z M274.926,398.562V511.5h75.704v-80.746l-22.7,14.188L274.926,398.562z M331.704,341.167L180.296,208.685
		L28.889,284.389v56.778l151.408-75.704l151.408,132.481l151.407-94.63v-56.777L331.704,341.167z"></path></g></g></svg>